<mxfile host="app.diagrams.net" modified="2024-05-02T00:11:13.488Z" agent="Mozilla/5.0 (Windows NT 10.0; Win64; x64; rv:125.0) Gecko/20100101 Firefox/125.0" etag="v9LphM0DnzVuTBfkGTLr" version="24.3.1" type="device">
  <diagram name="Page-1" id="GAzlBbVdNplGqc41zSaA">
    <mxGraphModel dx="1219" dy="1133" grid="1" gridSize="10" guides="1" tooltips="1" connect="1" arrows="1" fold="1" page="1" pageScale="1" pageWidth="1169" pageHeight="827" math="0" shadow="0">
      <root>
        <mxCell id="0" />
        <mxCell id="1" parent="0" />
        <mxCell id="rLnFbUhB1rJjn5ScQL3Y-6" value="Content" style="rounded=0;whiteSpace=wrap;html=1;align=left;verticalAlign=top;spacing=2;" parent="1" vertex="1">
          <mxGeometry width="490" height="170" as="geometry" />
        </mxCell>
        <mxCell id="rLnFbUhB1rJjn5ScQL3Y-8" value="Who am I" style="rounded=0;whiteSpace=wrap;html=1;align=left;verticalAlign=top;" parent="1" vertex="1">
          <mxGeometry x="20" y="30" width="450" height="120" as="geometry" />
        </mxCell>
        <mxCell id="rLnFbUhB1rJjn5ScQL3Y-31" value="Content" style="rounded=0;whiteSpace=wrap;html=1;align=left;verticalAlign=top;spacing=2;" parent="1" vertex="1">
          <mxGeometry y="190" width="490" height="170" as="geometry" />
        </mxCell>
        <mxCell id="rLnFbUhB1rJjn5ScQL3Y-32" value="What computer work I do" style="rounded=0;whiteSpace=wrap;html=1;align=left;verticalAlign=top;" parent="1" vertex="1">
          <mxGeometry x="20" y="220" width="450" height="120" as="geometry" />
        </mxCell>
        <mxCell id="mlVIf3eEKGwMdzgXxN-M-2" value="Content" style="rounded=0;whiteSpace=wrap;html=1;align=left;verticalAlign=top;spacing=2;" vertex="1" parent="1">
          <mxGeometry y="380" width="490" height="430" as="geometry" />
        </mxCell>
        <mxCell id="mlVIf3eEKGwMdzgXxN-M-3" value="Showcase 1" style="rounded=0;whiteSpace=wrap;html=1;align=left;verticalAlign=top;" vertex="1" parent="1">
          <mxGeometry x="20" y="410" width="450" height="120" as="geometry" />
        </mxCell>
        <mxCell id="mlVIf3eEKGwMdzgXxN-M-4" value="Showcase 2" style="rounded=0;whiteSpace=wrap;html=1;align=left;verticalAlign=top;" vertex="1" parent="1">
          <mxGeometry x="20" y="540" width="450" height="120" as="geometry" />
        </mxCell>
        <mxCell id="mlVIf3eEKGwMdzgXxN-M-5" value="Showcase 3" style="rounded=0;whiteSpace=wrap;html=1;align=left;verticalAlign=top;" vertex="1" parent="1">
          <mxGeometry x="20" y="670" width="450" height="120" as="geometry" />
        </mxCell>
        <mxCell id="mlVIf3eEKGwMdzgXxN-M-6" value="Image" style="rounded=0;whiteSpace=wrap;html=1;" vertex="1" parent="1">
          <mxGeometry x="290" y="410" width="180" height="120" as="geometry" />
        </mxCell>
        <mxCell id="mlVIf3eEKGwMdzgXxN-M-7" value="Image" style="rounded=0;whiteSpace=wrap;html=1;" vertex="1" parent="1">
          <mxGeometry x="290" y="540" width="180" height="120" as="geometry" />
        </mxCell>
        <mxCell id="mlVIf3eEKGwMdzgXxN-M-8" value="Image" style="rounded=0;whiteSpace=wrap;html=1;" vertex="1" parent="1">
          <mxGeometry x="290" y="670" width="180" height="120" as="geometry" />
        </mxCell>
      </root>
    </mxGraphModel>
  </diagram>
</mxfile>
